<?xml version="1.0" encoding="UTF-8" standalone="no"?>
<svg
   xmlns:dc="http://purl.org/dc/elements/1.1/"
   xmlns:cc="http://creativecommons.org/ns#"
   xmlns:rdf="http://www.w3.org/1999/02/22-rdf-syntax-ns#"
   xmlns:svg="http://www.w3.org/2000/svg"
   xmlns="http://www.w3.org/2000/svg"
   viewBox="0 0 75 250"
   height="250"
   width="75"
   version="1.1"
   id="svg4222">
  <metadata
     id="metadata4228">
    <rdf:RDF>
      <cc:Work
         rdf:about="">
        <dc:format>image/svg+xml</dc:format>
        <dc:type
           rdf:resource="http://purl.org/dc/dcmitype/StillImage" />
        <dc:title></dc:title>
      </cc:Work>
    </rdf:RDF>
  </metadata>
  <defs
     id="defs4226" />
  <path
     id="path4232"
     d="M 10.382849,248.97963 C -0.78680656,245.82485 -2.8796116,231.67034 7.1992664,227.44774 9.9411656,226.299 12.736262,226.06024 18.132842,226.51376 l 7.25,0.60928 -0.006,-10.73724 c -0.007,-13.13449 -1.0552,-17.20544 -5.41727,-21.03539 -5.10102,-4.47875 -6.41182,-7.08835 -7.13359,-14.20186 -0.62561,-6.16583 1.1244,-41.71048 2.19034,-44.48828 0.29816,-0.777 -1.13179,-2.22563 -3.524235,-3.57026 -4.2589456,-2.39366 -6.1096386,-5.83723 -6.1096386,-11.36818 0,-3.61534 1.539326,-6.13535 7.9856836,-13.07328 l 4.64574,-5 1.2625,-16.000006 c 2.15383,-27.295962 4.5641,-35.815225 11.93091,-42.170564 3.36178,-2.900206 3.50462,-3.226911 1.67516,-3.831355 -5.07934,-1.678191 -6.5,-2.572829 -6.5,-4.093274 0,-1.08599 0.58981,-1.467684 1.75,-1.13252 8.512,2.458992 11.28151,3.029543 11.86642,2.444624 1.04389,-1.043887 -2.46792,-16.115603 -6.20256,-26.619669 -1.83869,-5.1715157 -3.10744,-9.7840155 -2.81945,-10.2499995 0.74489,-1.20524896 34.14572,-1.07674496 34.89415,0.13425 0.33363,0.53982 -0.76201,5.1523198 -2.43475,10.2499985 -3.31822,10.112276 -5.05381,18.156596 -5.05381,23.424051 0,3.181263 0.16366,3.34381 2.75,2.731383 1.5125,-0.358148 4.55,-1.260172 6.75,-2.004498 5.13185,-1.736259 6.5,-1.722819 6.5,0.06385 0,0.857931 -2.44081,2.336245 -6,3.633991 -3.3,1.20324 -6,2.37476 -6,2.603379 0,0.228618 0.74706,1.855822 1.66012,3.616009 2.59927,5.010807 2.90593,20.4298 0.79285,39.864564 l -1.83032,16.834116 2.05646,2.78152 c 5.92753,8.0174 7.78873,15.94558 4.9465,21.07062 -0.71693,1.29276 -3.21002,3.54276 -5.54019,5 l -4.23668,2.64953 -0.2264,23.5 c -0.26785,27.8026 -0.74509,29.78327 -9.03656,37.50397 -5.21269,4.85386 -5.39569,5.20749 -6.10047,11.78859 -0.75536,7.05347 -0.297,17.22908 0.8267,18.35278 0.35621,0.35621 3.17178,-0.31827 6.25681,-1.49884 7.64732,-2.92646 12.84229,-2.8263 15.97664,0.30805 1.35,1.35 2.45454,3.53284 2.45454,4.85077 0,5.29798 -3.67341,12.37678 -7.99264,15.40208 -3.34635,2.34387 -12.44001,3.49884 -18.5928,2.36144 -4.75012,-0.87811 -6.46526,-0.73614 -11.46845,0.94932 -6.33904,2.13546 -15.99695,2.49321 -21.946103,0.81292 z m 20.925083,-4.41778 c 2.15631,-0.86279 4.16046,-2.19385 4.45366,-2.95793 0.29321,-0.76407 -0.20774,-3.7666 -1.1132,-6.67229 -2.20361,-7.07154 -2.46081,-31.62133 -0.35793,-34.1651 2.40939,-2.91455 3.18465,-0.31944 2.12873,7.12576 -1.20047,8.46442 -0.008,19.80528 3.05022,29.0078 2.39373,7.20306 3.39771,7.74315 13.09066,7.04202 5.62626,-0.40697 6.40658,-0.76557 9.96356,-4.57883 2.88223,-3.08991 3.85921,-4.9825 3.85921,-7.47601 0,-6.46699 -4.43389,-7.36777 -15.59243,-3.16771 -6.32728,2.38159 -6.92121,2.44702 -8.06107,0.88817 -1.8494,-2.5292 -2.67959,-11.60121 -1.88999,-20.65306 0.84416,-9.6772 1.88967,-12.23892 6.0426,-14.80557 1.73564,-1.07268 4.47087,-4.32413 6.0783,-7.22544 l 2.92259,-5.27511 0.61033,-34.5 c 0.5212,-29.4621 0.99337,-37.2745 3.23345,-53.500003 4.0121,-29.060667 3.38583,-43.20773 -2.10388,-47.525942 -1.88728,-1.484534 -4.05104,-1.974061 -8.72553,-1.974061 -7.80276,0 -12.10589,1.417682 -16.34253,5.384108 -5.8728,5.498223 -7.37389,11.285897 -9.62636,37.115892 -0.81536,9.350003 -1.92742,21.725006 -2.47124,27.500006 -4.46396,47.40413 -5.27635,65.98771 -3.12565,71.5 0.64377,1.65 2.65151,4.575 4.46165,6.5 6.60741,7.02669 6.58976,6.96053 6.58976,24.69776 l 0,16.25274 -2.75,-1.07973 c -1.5125,-0.59385 -6.04935,-1.14521 -10.0819,-1.22525 -6.5895376,-0.13079 -7.5260956,0.0935 -9.2499906,2.21526 -7.845983,9.65677 9.6009806,17.71677 25.0069806,11.55252 z m 2.85326,-121.78462 c -1.75352,-1.33191 -6.75082,-11.16047 -6.76858,-13.31226 -0.005,-0.65097 -1.24727,-1.34109 -2.75977,-1.5336 -2.74969,-0.34998 -2.74959,-0.3502 0.89788,-1.97272 2.00633,-0.89249 4.08156,-2.39766 4.61161,-3.34482 1.42966,-2.55464 2.5904,0.0124 1.18935,2.63032 -1.45883,2.72584 0.2619,9.38173 3.46343,13.39684 3.5861,4.49739 6.72177,3.012 10.69982,-5.06856 3.14849,-6.39549 3.18919,-6.64385 1.54492,-9.42738 -1.79489,-3.03849 -0.73055,-4.994963 1.35213,-2.48549 0.67966,0.81894 2.27909,1.48899 3.55429,1.48899 3.31391,0 3.79789,1.51434 0.90522,2.83233 -1.35776,0.61864 -2.46865,1.82227 -2.46865,2.67475 0,2.63637 -5.88239,13.35961 -7.92964,14.45527 -2.61692,1.40053 -6.19862,1.25641 -8.29201,-0.33367 z m 3.62136,-27.393993 c -3.99103,-2.664883 -4.074,-10.948563 -0.13728,-13.705943 3.03428,-2.12529 9.03472,-1.96287 11.08258,0.3 2.38027,2.63016 2.18143,9.64481 -0.34501,12.171253 -2.02069,2.0207 -8.32365,2.75485 -10.60029,1.23469 z m 0.0304,-19.556333 c -1.05772,-2.756384 -0.0169,-8.178364 1.56993,-8.178364 1.10692,0 1.5,1.15741 1.5,4.41667 0,4.402744 -1.92078,6.756334 -3.06993,3.761694 z m 9.96397,-0.0939 c -1.00589,-2.621324 0.0582,-7.058324 1.77052,-7.382794 2.01091,-0.38105 3.26683,2.94338 2.40668,6.37049 -0.66353,2.643734 -3.30547,3.283984 -4.1772,1.012304 z M 30.846692,70.07853 c -1.32181,-2.55609 -1.40514,-3.65742 -0.45103,-5.96084 0.64368,-1.554 1.85424,-3.087894 2.69012,-3.408652 1.14285,-0.438551 1.33627,-0.146349 0.77985,1.178142 -1.46934,3.4976 -1.65265,6.07537 -0.5752,8.0886 0.68681,1.28332 0.73838,2.27354 0.13774,2.64475 -0.52806,0.32636 -1.68973,-0.81754 -2.58148,-2.542 z m 27.10513,-1.07471 c 0.35333,-2.0969 0.11535,-4.57669 -0.56038,-5.8393 -1.02324,-1.911955 -0.93844,-2.149833 0.65846,-1.846984 2.44588,0.463854 3.00667,6.584804 0.85489,9.330984 -1.48414,1.89413 -1.53459,1.80707 -0.95297,-1.6447 z m -42.22065,54.39471 c 1.28672,-13.62419 0.97663,-14.21236 -3.83348,-7.27137 -3.4244016,4.94142 -3.6052096,9.71999 -0.464015,12.26358 1.193925,0.96678 2.505855,1.75779 2.915385,1.75779 0.40954,0 1.03149,-3.0375 1.38211,-6.75 z m 51.07614,0.90948 c 1.62347,-3.0985 0.28977,-9.01365 -2.77583,-12.31123 l -2.1486,-2.31118 -0.66239,4.98146 c -0.36432,2.73981 -0.70182,7.10932 -0.75,9.71003 -0.0875,4.72392 -0.0851,4.72741 2.48092,3.55826 1.41268,-0.64366 3.14784,-2.27597 3.8559,-3.62734 z"
     style="fill:#000000" />
</svg>
